<?xml version="1.0" encoding="UTF-8" standalone="no"?>
<!DOCTYPE svg PUBLIC "-//W3C//DTD SVG 1.1//EN" "http://www.w3.org/Graphics/SVG/1.1/DTD/svg11.dtd">
<!-- Created with gpx2svg @VERSION@ -->
<svg xmlns="http://www.w3.org/2000/svg" version="1.1" width="740.4509023661794mm" height="126.12176190339865mm" viewBox="0 0 740.4509023661794 126.12176190339865">
<g>
<path d="M 0.0 95.69658276664055 16.47230652760308 95.98329656840218 175.764799771742 64.63064709783234 178.09191538361677 70.9604122536352 239.3960161289727 55.084765120325 240.91534914466575 56.81105550756682 292.4451287982393 47.296397633285125 294.2570558262314 42.65929604079729 297.45876208915274 39.37606494079846 301.3097909963209 38.07969609609246 303.85425583634174 41.912744961836125 305.80540547706676 48.12268487008454 376.6209956699991 34.49592142004825 370.50233206082794 4.895905814833796 382.324218739015 2.499908669114461 388.4476161345204 32.47397384370824 392.0859435473377 34.04847201258352 399.674499529832 32.33021712909935 400.58445501991736 35.18664577624217 471.9920218600267 28.78608409516673 472.76123382251586 30.397333807045868 529.8457945877651 25.92652811408756 569.1112649748909 23.180275974175657 572.316336943814 20.146561273007677 577.7979130174253 0.0 586.549116950042 1.3846330474199533 584.4519495972221 13.008428009331567 585.0051130845138 17.24113302572168 588.0435833200518 20.69390744484778 592.0481247922302 21.640366430780063 652.0497570162287 20.874560341154435 683.7027891575577 17.976853007264495 685.2235851983766 19.827946428471904 724.2167560686113 25.067018728268195 725.1908450842113 23.184118456770435 728.712293050394 25.383824641962136 740.4509023661794 26.2318372850835 727.7829638826103 50.33548324529805 723.9325153941652 41.9050166130004 719.616486755124 36.09916731944513 696.3712843000035 33.028608502788344 695.5187676827212 34.66056578639841 689.2465944291943 31.997157911122315 677.5111739304288 31.3986124101974 630.1262415644172 33.37480606065023 624.6630248027298 35.439713642821346 613.3145805969967 35.83395943821455 606.1803199956333 34.0545444152213 590.6001676271791 35.25105533374166 587.8829106810788 37.4056366996672 586.3010935762945 40.54331288404666 576.0817267766337 41.422014389103396 575.4101918606632 37.68961824853794 571.8950675092336 35.9887259120634 568.3990708381085 35.78398057915932 516.050026630822 39.81975434213183 512.3380485369967 42.236486515211055 437.1787379390132 47.93633773797936 436.43666964251685 48.44463031622841 400.42115849801024 51.649018183585014 397.0674876677854 52.81425000721312 395.7256815539701 55.200713866886915 396.4149150686596 60.304552050443206 381.10195619840647 62.869927816202186 380.04487480247377 58.269599030877345 378.0122290307115 55.4275525547409 373.2432351405333 53.24405019252649 361.5318148761638 54.516360364405244 276.14568793718325 70.20067243981985 276.31044976385516 73.31603712439181 251.4196688518963 78.12451592823142 233.85506908494415 80.22039765609382 232.67472745880335 75.74637780514774 148.94750052516588 84.55293143396159 140.07996379920033 93.52051978883716 107.29377917765477 95.56304373592667 83.61696105395089 97.73799572408512 61.317135551640945 100.26943168924794 31.72987618433018 108.50621036402082 35.45017169568175 116.43907354841221 19.480678748778264 126.12176190339865 Z" style="fill:none;stroke:black"/>
</g>
</svg>
