<?xml version="1.0" encoding="UTF-8" standalone="no"?>
<svg
   xmlns:dc="http://purl.org/dc/elements/1.1/"
   xmlns:cc="http://creativecommons.org/ns#"
   xmlns:rdf="http://www.w3.org/1999/02/22-rdf-syntax-ns#"
   xmlns:svg="http://www.w3.org/2000/svg"
   xmlns="http://www.w3.org/2000/svg"
   xmlns:sodipodi="http://sodipodi.sourceforge.net/DTD/sodipodi-0.dtd"
   xmlns:inkscape="http://www.inkscape.org/namespaces/inkscape"
   version="1.1"
   width="1014.7598615873028mm"
   height="207.0181202393032mm"
   viewBox="0 0 1014.7598615873028 207.0181202393032"
   id="svg6"
   sodipodi:docname="penzendorf-ost.svg"
   inkscape:version="1.0.2-2 (e86c870879, 2021-01-15)">
  <metadata
     id="metadata12">
    <rdf:RDF>
      <cc:Work
         rdf:about="">
        <dc:format>image/svg+xml</dc:format>
        <dc:type
           rdf:resource="http://purl.org/dc/dcmitype/StillImage" />
        <dc:title></dc:title>
      </cc:Work>
    </rdf:RDF>
  </metadata>
  <defs
     id="defs10" />
  <sodipodi:namedview
     pagecolor="#ffffff"
     bordercolor="#666666"
     borderopacity="1"
     objecttolerance="10"
     gridtolerance="10"
     guidetolerance="10"
     inkscape:pageopacity="0"
     inkscape:pageshadow="2"
     inkscape:window-width="1920"
     inkscape:window-height="1017"
     id="namedview8"
     showgrid="false"
     inkscape:zoom="0.30036662"
     inkscape:cx="1991.0531"
     inkscape:cy="-300.62268"
     inkscape:window-x="-8"
     inkscape:window-y="-8"
     inkscape:window-maximized="1"
     inkscape:current-layer="svg6" />
  <path
     style="font-variation-settings:normal;vector-effect:none;fill:none;fill-opacity:1;fill-rule:evenodd;stroke:#efcdcd;stroke-width:12;stroke-linecap:butt;stroke-linejoin:miter;stroke-miterlimit:4;stroke-dasharray:none;stroke-dashoffset:0;stroke-opacity:1;stop-color:#000000"
     d="m 581.42416,86.585779 46.19423,15.154471"
     id="path847-8"
     sodipodi:nodetypes="cc" />
  <circle
     style="color:#000000;overflow:visible;fill:#cecece;fill-opacity:1;stroke-width:6.49999;stop-color:#000000"
     id="path837"
     cx="543.32947"
     cy="17.891716"
     r="5.9999995" />
  <path
     style="fill:none;fill-rule:evenodd;stroke:#efcdcd;stroke-width:11.99999954;stroke-linecap:butt;stroke-linejoin:miter;stroke-opacity:1;stroke-miterlimit:4;stroke-dasharray:none"
     d="M -0.88086791,17.617358 C 27.74734,20.700396 35.67515,19.819528 35.67515,19.819528"
     id="path839" />
  <path
     style="font-variation-settings:normal;opacity:1;vector-effect:none;fill:none;fill-opacity:1;fill-rule:evenodd;stroke:#d0efcd;stroke-width:15;stroke-linecap:butt;stroke-linejoin:miter;stroke-miterlimit:4;stroke-dasharray:none;stroke-dashoffset:0;stroke-opacity:1;stop-color:#000000;stop-opacity:1"
     d="m 35.67515,19.819528 c 15.330565,-0.623194 50.20364,-9.9865257 95.86455,-5.178542 47.85842,5.039376 68.01305,9.559862 158.43325,18.780467 76.36961,7.787797 124.91584,17.228452 124.91584,17.228452"
     id="path843"
     sodipodi:nodetypes="cssc" />
  <path
     style="font-variation-settings:normal;opacity:1;vector-effect:none;fill:none;fill-opacity:1;fill-rule:evenodd;stroke:#d0efcd;stroke-width:15;stroke-linecap:butt;stroke-linejoin:miter;stroke-miterlimit:4;stroke-dasharray:none;stroke-dashoffset:0;stroke-opacity:1;stop-color:#000000;stop-opacity:1"
     d="m 627.61839,101.74025 c 39.32064,12.08872 79.73799,26.99241 110.10849,35.67515 30.3705,8.68274 57.35342,15.20611 79.2781,20.25995 21.92468,5.05384 51.97123,11.01085 51.97123,11.01085"
     id="path887"
     sodipodi:nodetypes="cssc" />
  <path
     style="font-variation-settings:normal;opacity:1;vector-effect:none;fill:none;fill-opacity:1;fill-rule:evenodd;stroke:#d0efcd;stroke-width:15;stroke-linecap:butt;stroke-linejoin:miter;stroke-miterlimit:4;stroke-dasharray:none;stroke-dashoffset:0;stroke-opacity:1;stop-color:#000000;stop-opacity:1"
     d="m 497.77511,65.678094 c 0,0 39.7622,8.373984 83.64905,20.907685"
     id="path845"
     sodipodi:nodetypes="cc" />
  <path
     style="font-variation-settings:normal;opacity:1;vector-effect:none;fill:none;fill-opacity:1;fill-rule:evenodd;stroke:#efcdcd;stroke-width:12;stroke-linecap:butt;stroke-linejoin:miter;stroke-miterlimit:4;stroke-dasharray:none;stroke-dashoffset:0;stroke-opacity:1;stop-color:#000000;stop-opacity:1"
     d="m 436.91048,51.971207 60.86463,13.706887"
     id="path847"
     sodipodi:nodetypes="cc" />
  <path
     style="font-variation-settings:normal;opacity:1;vector-effect:none;fill:none;fill-opacity:1;fill-rule:evenodd;stroke:#efcdcd;stroke-width:12;stroke-linecap:butt;stroke-linejoin:miter;stroke-miterlimit:4;stroke-dasharray:none;stroke-dashoffset:0;stroke-opacity:1;stop-color:#000000;stop-opacity:1"
     d="m 868.97621,168.6862 38.75818,6.16608"
     id="path849"
     sodipodi:nodetypes="cc" />
  <g
     id="g4">
    <path
       d="M 5.679315477603464 9.679215752405057 10.451461717788657 12.112382739002875 37.90504186912311 12.510799309152382 41.37248274210917 10.47144629643357 73.52191236226452 7.318655630650465 96.46560442934475 6.278397099312278 96.38617649073369 0.044454677405999975 99.87906305800104 0.0 99.95848702234977 6.233942510986497 126.17416350753237 7.396750371827278 174.40221326999526 12.768955812628585 176.42987908663065 15.237159126149985 233.39634463106526 20.997595546524654 237.36283646657347 18.952027505056524 268.6031139943702 22.795076194421302 273.1319812711568 25.73035640202489 330.59406026468037 31.236112187516934 405.5804636551771 41.2589526543495 419.0086684589241 37.59724499814533 421.44981468205793 33.32655175927415 424.01396837172047 19.07837771984216 440.0067077494195 20.870993447549147 438.22260035391605 37.603261372474925 440.03226285241783 42.56830387759797 443.8378426816714 47.50807000923436 503.39337197993535 60.720465369720245 506.6177857212487 59.183278237821504 558.4294136553525 71.7460635143567 583.4855907125888 79.90886349907139 583.7571634447199 81.65121780367326 698.0059326992738 118.3663625472051 730.0630640310413 127.68848955774739 731.2947571651046 126.42596514813275 753.5777587226123 132.3799341953463 753.6060823564351 134.62415985868347 801.1689001665003 146.74400982242682 800.0671733584354 138.52775396542185 803.556836716742 138.23438988026064 805.1763984889126 147.94051104145083 891.2445423461933 166.3099227285034 909.2325915692273 168.07879992509828 908.0933511166452 156.87021767753154 913.8283794853476 156.54867854994293 915.4446007594909 166.00547584225941 920.4625589549989 168.18694384863392 946.4246989047144 169.10746210470404 993.0125506201537 163.28457211020327 994.3916926453076 173.74196326332574 973.4600599720688 176.00016893435182 973.2388084717401 178.2475321624498 1014.7598615873028 186.20540041743732 1005.7891906457955 207.0181202393032 933.6868894353211 187.97247942405818 888.8910306021186 177.5624501508526 868.1398244081423 174.33202999335245 864.1543527572464 174.8809921285593 862.6825810544334 176.8947030382859 861.5074266231755 182.6456518029748 853.2524460368146 181.00378560881384 853.4390808727476 176.0134742224029 852.9149715375642 174.02488785404375 849.4001866782272 172.32335220068148 807.3672509594071 163.37559169671044 736.770067503574 145.06177106635442 711.9701955202329 137.39383421765385 709.2415921400893 138.67524754422334 707.592812661425 146.4273894250019 696.8617722027349 146.3133858862595 696.4768509912547 135.5941247368083 699.2243501189852 135.80885519667302 698.1917593583069 133.07850512481244 624.5243149512844 108.81931488085313 623.2421942752552 106.09213077536698 567.8837678513665 89.27145264050873 506.9265056178924 73.7068111930278 501.83567159970005 75.6417119843062 499.8634508247609 77.53715380390477 498.6428561954336 79.67248316897381 489.1148994500463 76.05208849540332 488.57011349321846 72.44271081943234 486.15889710438097 69.23105245352292 481.2749018438102 67.79648012625877 470.76475583784094 65.43553981089275 428.9893823013943 57.235610953531435 424.11326718528113 56.424484939239136 412.76781353858263 57.06701452487341 351.89048633023316 47.862734177361304 240.07255359532073 35.81433255939226 235.60867762955712 37.99091561986957 190.75219978539323 32.82471575986984 190.97789440479775 30.951361133707543 172.7333467776241 28.68930358251717 171.94581805946177 35.4330655746026 168.69450893545743 34.85090756588889 169.3652228072911 28.732125640919286 167.7117950432528 26.259166622717284 120.11552566519768 21.502477336773474 92.1550675946998 20.486605549694186 63.48744936186402 22.722056831377763 63.76395815691745 24.83842015099531 41.33364084584863 26.99456835293776 22.737050023200066 26.4832810220831 17.84901919437233 34.52630246408412 18.15894174882714 39.26091848858117 9.469734975870058 42.738516830118634 8.528127236815351 37.38845573520695 5.519930505284996 36.304500013454266 3.42379774024636 28.475171777237993 0.0 24.154339678614576 Z"
       style="fill:none;stroke:black"
       id="path2" />
  </g>
</svg>
