<?xml version="1.0" encoding="UTF-8" standalone="no"?>
<svg
   xmlns:dc="http://purl.org/dc/elements/1.1/"
   xmlns:cc="http://creativecommons.org/ns#"
   xmlns:rdf="http://www.w3.org/1999/02/22-rdf-syntax-ns#"
   xmlns:svg="http://www.w3.org/2000/svg"
   xmlns="http://www.w3.org/2000/svg"
   xmlns:sodipodi="http://sodipodi.sourceforge.net/DTD/sodipodi-0.dtd"
   xmlns:inkscape="http://www.inkscape.org/namespaces/inkscape"
   version="1.1"
   width="889.20209mm"
   height="379.57773mm"
   viewBox="0 0 889.20209 379.57773"
   id="svg12"
   sodipodi:docname="suedl-ringstr.svg"
   inkscape:version="1.0.2-2 (e86c870879, 2021-01-15)">
  <metadata
     id="metadata18">
    <rdf:RDF>
      <cc:Work
         rdf:about="">
        <dc:format>image/svg+xml</dc:format>
        <dc:type
           rdf:resource="http://purl.org/dc/dcmitype/StillImage" />
        <dc:title />
      </cc:Work>
    </rdf:RDF>
  </metadata>
  <defs
     id="defs16">
    <marker
       style="overflow:visible;"
       id="marker1666"
       refX="0.0"
       refY="0.0"
       orient="auto"
       inkscape:stockid="Arrow1Send"
       inkscape:isstock="true">
      <path
         transform="scale(0.2) rotate(180) translate(6,0)"
         style="fill-rule:evenodd;stroke:#000000;stroke-width:1pt;stroke-opacity:1;fill:#000000;fill-opacity:1"
         d="M 0.0,0.0 L 5.0,-5.0 L -12.5,0.0 L 5.0,5.0 L 0.0,0.0 z "
         id="path1664" />
    </marker>
    <marker
       style="overflow:visible"
       id="marker1590"
       refX="0"
       refY="0"
       orient="auto"
       inkscape:stockid="Arrow1Mend"
       inkscape:isstock="true">
      <path
         transform="matrix(-0.4,0,0,-0.4,-4,0)"
         style="fill:#000000;fill-opacity:1;fill-rule:evenodd;stroke:#000000;stroke-width:1pt;stroke-opacity:1"
         d="M 0,0 5,-5 -12.5,0 5,5 Z"
         id="path1588" />
    </marker>
    <marker
       style="overflow:visible;"
       id="Arrow1Send"
       refX="0.0"
       refY="0.0"
       orient="auto"
       inkscape:stockid="Arrow1Send"
       inkscape:isstock="true">
      <path
         transform="scale(0.2) rotate(180) translate(6,0)"
         style="fill-rule:evenodd;stroke:#ffffff;stroke-width:1pt;stroke-opacity:1;fill:#ffffff;fill-opacity:1"
         d="M 0.0,0.0 L 5.0,-5.0 L -12.5,0.0 L 5.0,5.0 L 0.0,0.0 z "
         id="path976" />
    </marker>
    <marker
       style="overflow:visible"
       id="marker1440"
       refX="0"
       refY="0"
       orient="auto"
       inkscape:stockid="Arrow1Mend"
       inkscape:isstock="true">
      <path
         transform="matrix(-0.4,0,0,-0.4,-4,0)"
         style="fill:#000000;fill-opacity:1;fill-rule:evenodd;stroke:#000000;stroke-width:1pt;stroke-opacity:1"
         d="M 0,0 5,-5 -12.5,0 5,5 Z"
         id="path1438" />
    </marker>
    <marker
       style="overflow:visible;"
       id="Arrow1Mend"
       refX="0.0"
       refY="0.0"
       orient="auto"
       inkscape:stockid="Arrow1Mend"
       inkscape:isstock="true">
      <path
         transform="scale(0.4) rotate(180) translate(10,0)"
         style="fill-rule:evenodd;stroke:#000000;stroke-width:1pt;stroke-opacity:1;fill:#000000;fill-opacity:1"
         d="M 0.0,0.0 L 5.0,-5.0 L -12.5,0.0 L 5.0,5.0 L 0.0,0.0 z "
         id="path970" />
    </marker>
    <marker
       style="overflow:visible"
       id="marker917"
       refX="0"
       refY="0"
       orient="auto"
       inkscape:stockid="Arrow1Lend"
       inkscape:isstock="true">
      <path
         transform="matrix(-0.8,0,0,-0.8,-10,0)"
         style="fill:#000000;fill-opacity:1;fill-rule:evenodd;stroke:#000000;stroke-width:1pt;stroke-opacity:1"
         d="M 0,0 5,-5 -12.5,0 5,5 Z"
         id="path915" />
    </marker>
    <marker
       style="overflow:visible;"
       id="Arrow1Lend"
       refX="0.0"
       refY="0.0"
       orient="auto"
       inkscape:stockid="Arrow1Lend"
       inkscape:isstock="true">
      <path
         transform="scale(0.8) rotate(180) translate(12.5,0)"
         style="fill-rule:evenodd;stroke:#000000;stroke-width:1pt;stroke-opacity:1;fill:#000000;fill-opacity:1"
         d="M 0.0,0.0 L 5.0,-5.0 L -12.5,0.0 L 5.0,5.0 L 0.0,0.0 z "
         id="path861" />
    </marker>
    <marker
       style="overflow:visible"
       id="Arrow1Lstart"
       refX="0.0"
       refY="0.0"
       orient="auto"
       inkscape:stockid="Arrow1Lstart"
       inkscape:isstock="true">
      <path
         transform="scale(0.8) translate(12.5,0)"
         style="fill-rule:evenodd;stroke:#000000;stroke-width:1pt;stroke-opacity:1;fill:#000000;fill-opacity:1"
         d="M 0.0,0.0 L 5.0,-5.0 L -12.5,0.0 L 5.0,5.0 L 0.0,0.0 z "
         id="path858" />
    </marker>
    <marker
       style="overflow:visible"
       id="Arrow1Lend-0"
       refX="0"
       refY="0"
       orient="auto"
       inkscape:stockid="Arrow1Lend"
       inkscape:isstock="true"
       inkscape:collect="always">
      <path
         transform="matrix(-0.8,0,0,-0.8,-10,0)"
         style="fill:#000000;fill-opacity:1;fill-rule:evenodd;stroke:#000000;stroke-width:1pt;stroke-opacity:1"
         d="M 0,0 5,-5 -12.5,0 5,5 Z"
         id="path861-7" />
    </marker>
    <marker
       style="overflow:visible"
       id="Arrow1Lend-5"
       refX="0"
       refY="0"
       orient="auto"
       inkscape:stockid="Arrow1Lend"
       inkscape:isstock="true">
      <path
         transform="matrix(-0.8,0,0,-0.8,-10,0)"
         style="fill:#000000;fill-opacity:1;fill-rule:evenodd;stroke:#000000;stroke-width:1pt;stroke-opacity:1"
         d="M 0,0 5,-5 -12.5,0 5,5 Z"
         id="path861-8" />
    </marker>
    <marker
       style="overflow:visible"
       id="Arrow1Send-5"
       refX="0"
       refY="0"
       orient="auto"
       inkscape:stockid="Arrow1Send"
       inkscape:isstock="true">
      <path
         transform="matrix(-0.2,0,0,-0.2,-1.2,0)"
         style="fill:#ffffff;fill-opacity:1;fill-rule:evenodd;stroke:#ffffff;stroke-width:1pt;stroke-opacity:1"
         d="M 0,0 5,-5 -12.5,0 5,5 Z"
         id="path976-4" />
    </marker>
    <marker
       style="overflow:visible"
       id="Arrow1Send-8"
       refX="0"
       refY="0"
       orient="auto"
       inkscape:stockid="Arrow1Send"
       inkscape:isstock="true">
      <path
         transform="matrix(-0.2,0,0,-0.2,-1.2,0)"
         style="fill:#ffffff;fill-opacity:1;fill-rule:evenodd;stroke:#ffffff;stroke-width:1pt;stroke-opacity:1"
         d="M 0,0 5,-5 -12.5,0 5,5 Z"
         id="path976-3" />
    </marker>
    <marker
       style="overflow:visible"
       id="Arrow1Send-5-2"
       refX="0"
       refY="0"
       orient="auto"
       inkscape:stockid="Arrow1Send"
       inkscape:isstock="true">
      <path
         transform="matrix(-0.2,0,0,-0.2,-1.2,0)"
         style="fill:#ffffff;fill-opacity:1;fill-rule:evenodd;stroke:#ffffff;stroke-width:1pt;stroke-opacity:1"
         d="M 0,0 5,-5 -12.5,0 5,5 Z"
         id="path976-4-5" />
    </marker>
  </defs>
  <sodipodi:namedview
     pagecolor="#ffffff"
     bordercolor="#666666"
     borderopacity="1"
     objecttolerance="10"
     gridtolerance="10"
     guidetolerance="10"
     inkscape:pageopacity="0"
     inkscape:pageshadow="2"
     inkscape:window-width="1920"
     inkscape:window-height="1017"
     id="namedview14"
     showgrid="false"
     inkscape:zoom="0.68651778"
     inkscape:cx="2411.0722"
     inkscape:cy="539.35504"
     inkscape:window-x="-8"
     inkscape:window-y="-8"
     inkscape:window-maximized="1"
     inkscape:current-layer="svg12"
     inkscape:document-rotation="0"
     inkscape:document-units="mm"
     fit-margin-top="0"
     fit-margin-left="0"
     fit-margin-right="0"
     fit-margin-bottom="0"
     inkscape:snap-grids="false"
     inkscape:snap-to-guides="false"
     inkscape:snap-bbox="true"
     inkscape:snap-bbox-edge-midpoints="true"
     inkscape:bbox-nodes="true" />
  <path
     style="fill:#cccccc;fill-opacity:1;fill-rule:evenodd;stroke:none;stroke-width:0.264583px;stroke-linecap:butt;stroke-linejoin:miter;stroke-opacity:1"
     d="m 645.33893,142.9954 c 2.47253,-3.89168 4.44797,-8.27965 7.61327,-8.99282 7.87146,-1.77353 7.53043,-0.59849 7.53043,-0.59849 0,0 0.20361,-2.4404 0.97218,-5.46477 -3.97737,-0.0803 -7.19987,-1.8192 -7.93091,-4.04346 -1.42631,-4.3397 -1.43609,-4.8656 -0.94554,-7.67642 0.49056,-2.81085 -0.15006,-2.78378 -0.15006,-2.78378 z"
     id="path2069-6"
     sodipodi:nodetypes="csccsscc" />
  <g
     id="g10"
     transform="translate(0.56805817,0.52287485)">
    <path
       d="m 601.94317,125.46813 36.8566,3.88862 -1.04055,6.37309 -35.03396,69.53566 -3.4445,3.78546 -48.73804,32.42794 -7.80401,4.34063 -47.35023,23.93096 -1.15659,-2.60373 -23.67254,12.15265 -8.5645,-15.85068 0.9725,-11.60961 -2.32452,-6.08018 18.12539,-6.96827 -0.77914,-2.3592 33.50333,-14.15023 18.46588,-9.59119 18.16,-13.95164 21.92721,-21.7316 23.50395,-25.24345 6.24437,-9.18369 0.0132,-3.80349 z m 180.65545,163.89395 -39.49595,-5.47666 -76.79827,-14.97114 5.82419,-22.3963 43.12351,6.17757 36.89427,6.88168 0.11349,-0.87436 6.25004,0.91706 -0.10545,1.49774 27.43184,3.57462 z m -426.97175,-60.07525 -16.00606,-2.78534 -22.67091,-6.81394 -0.4925,0.50518 -11.39704,-3.34379 -15.99155,-1.66308 -15.75988,-3.03773 -16.27507,-4.27799 -10.90785,-4.09821 0.3224,-3.99456 -6.35711,0.45661 -9.41742,-4.61632 2.12227,-9.50469 -4.25915,-1.3164 2.96955,-11.51088 -7.12992,-1.40383 -1.77719,7.25563 -20.27516,-4.84939 -47.13465,-26.69678 0.83267,-3.1283 -11.02954,-3.84703 3.73897,-9.89983 4.01443,-7.90823 -14.49815,-1.93144 -3.88786,17.63312 -14.01049,-2.81063 -13.70607,-8.17663 -11.750745,-11.3195 -0.666199,-12.83535 -2.614811,0.40811 -0.960368,12.48241 -1.226358,1.63704 23.211401,19.5253 19.08956,9.60304 -9.18187,32.66586 0.4572,15.95555 -10.21586,10.73227 -14.486578,-1.0586 0.07767,-3.61729 -18.509271,-3.37551 -0.474622,1.87666 -64.044697,-12.63395 -0.197484,3.99295 L 1.3815237,188.12441 0,196.99604 l 10.757286,2.1045 6.55172,4.90265 95.924044,17.58141 5.76906,2.29427 1.80808,4.71507 2.24114,28.40228 18.57052,-1.48841 -2.81627,-34.25568 27.54412,-2.22845 4.62364,0.56342 51.20998,23.52652 0.7436,-0.38375 40.03777,18.3099 63.9103,21.61693 0.49088,-0.62986 11.29965,5.46499 27.30873,8.49973 55.89078,9.37672 0.46504,-2.6247 8.50833,1.88504 8.14863,3.01199 5.80599,5.16222 4.83066,6.92064 2.36811,9.44649 1.71693,7.33503 -1.98617,0.7739 4.52632,41.21686 16.69103,-2.08645 -2.73501,-28.14664 34.25223,-4.43343 -1.23566,-8.71297 -33.99795,4.80425 -4.2804,-31.86761 16.1051,-8.81261 -0.78398,-2.73324 68.66864,-34.80608 13.65879,23.89044 85.1634,25.08706 -12.4029,44.3036 9.13349,2.00199 12.45524,-49.91571 8.28912,-34.39924 76.8127,16.09324 2.48038,-1.15426 32.74213,4.19198 -0.63109,9.11117 4.87782,0.93476 0.0804,6.23392 -1.59432,2.14042 -2.15788,16.48809 9.74756,1.24613 0.40218,-36.54204 1.22653,-1.63688 -0.0672,-25.2875 24.31854,-0.0893 7.47175,-1.09379 7.21263,-1.83864 31.49696,-14.99517 3.49122,-0.16963 11.25152,11.45227 13.56769,-12.14564 -58.52553,-78.3062 16.59384,-9.69072 -3.97957,-8.67772 7.1496,-16.4276 -23.27295,4.53932 -15.22227,-0.0534 -0.0804,-6.23392 -4.11502,0.17769 -0.30513,5.36599 -67.47401,-7.73497 0.88053,-9.11439 -8.24293,-0.64195 -1.00688,8.99132 -17.615,-1.76809 2.42417,-24.84638 -12.61072,-0.71029 -1.68852,23.83932 -23.35981,-2.19269 -2.04103,-3.46524 -0.92153,-3.72909 -14.62758,-2.30525 -1.90342,-2.46943 8.02196,-74.424194 2.87244,0.212338 L 672.54748,8.4618928 664.7921,6.9408631 664.95946,0.57904808 651.85111,0 l 0.1788,13.839296 -11.63351,103.899834 -20.10678,-1.48624 -4.62368,-0.56379 -14.13184,-2.5609 1.62395,-9.49811 -5.63457,-1.54832 -2.51168,8.38728 -4.93506,4.30351 -11.46702,0.89632 -0.12534,9.60345 16.35308,0.66167 -0.83113,12.91709 -1.05098,5.56269 -2.31375,4.39436 -6.03355,6.18819 -5.45173,2.9385 1.15173,2.22971 -15.88737,16.04205 -16.42176,13.30563 -0.0957,2.24582 -12.20939,11.00663 -12.98201,9.14617 -12.51849,6.39682 -23.58034,9.6574 -13.782,5.16626 -14.28418,4.9234 -1.39318,-1.60307 -3.09201,-17.16847 -11.30326,3.88726 3.58294,16.53862 -10.44617,2.6292 -32.4657,-2.07364 -16.97554,-4.84658 z m 53.74471,17.0111 26.09243,1.28327 10.21121,-1.50386 4.40728,22.38882 -1.87312,9.50138 1.8776,0.47449 -1.48436,10.61865 -81.4826,-10.54186 0.0129,0.99743 -33.17658,-8.79777 -73.05232,-24.24177 -43.41083,-18.64019 -26.73096,-11.99808 -12.81633,-6.94136 -6.64551,-2.53235 -15.73077,-0.79318 -17.01067,-3.27049 -1.42897,-4.3459 -2.85346,-27.52143 1.69776,-3.76304 -0.75659,-0.61366 6.80729,-13.8054 23.38433,13.66241 23.24326,12.41735 22.15448,15.05027 8.91684,4.49808 0.48115,-1.37793 1.88413,0.97313 1.10326,-1.51072 18.07826,8.61896 0.52328,1.8637 -0.35804,1.25164 12.40639,4.20345 13.1435,3.32102 20.87763,3.22072 17.63587,3.38755 8.38214,1.76179 50.07069,12.69379 0.84895,-1.88149 10.63233,2.10683 0.0178,1.37146 1.24744,-0.0162 -0.48443,1.12857 8.57003,1.82184 z m 150.58765,9.39969 38.68688,-28.18299 29.42283,7.97493 0.96412,-2.63113 34.5582,9.52993 -2.85858,10.51161 1.63455,0.97651 -3.3366,12.13887 -5.00729,18.0213 -6.33271,21.65468 -1.73512,0.89529 -80.16085,-24.15408 -14.25992,-22.13689 z"
       style="fill:none;stroke:#000000"
       id="path2"
       sodipodi:nodetypes="cccccccccccccccccccccccccccccccccccccccccccccccccccccccccccccccccccccccccccccccccccccccccccccccccccccccccccccccccccccccccccccccccccccccccccccccccccccccccccccccccccccccccccccccccccccccccccccccccccccccccccccccccccccccccccccccccccccccccccccccccccccccccccccccccccccc" />
    <path
       d="m 672.57717,146.00466 0.63102,10.21719 3.44305,15.41828 2.24864,0.22039 3.002,19.91314 -2.1761,24.71851 0.771,1.73584 -2.80387,14.75067 0.77744,2.23456 36.752,5.51157 5.95567,-41.22751 16.46954,0.0371 0.66965,-6.11889 3.23854,-0.41584 2.9642,-12.00932 2.24702,0.0957 -0.3435,-16.95466 -1.99111,0.39976 -0.62357,-19.32033 -4.98824,0.18899 -0.0193,-1.49614 -53.89354,0.44551 -0.22857,1.62404 z"
       style="fill:none;stroke:#000000"
       id="path4" />
    <path
       d="m 765.2812,146.18114 -0.73814,10.48424 -7.57291,41.6224 24.91106,6.41281 7.52166,2.77119 -0.616,19.9598 -0.87482,-0.11343 -3.94228,23.24483 10.13479,2.23874 25.31172,-1.19883 34.61077,-15.40938 0.71153,-2.87724 -36.40094,-46.04425 -1.87922,-0.59931 -8.27596,6.46622 -3.11059,0.66355 -5.14214,-31.10857 1.10181,-1.63528 -9.68901,-6.35957 -8.04484,-4.63495 -8.9052,-3.62626 -9.35435,0.24522 z"
       style="fill:none;stroke:#000000"
       id="path6" />
    <path
       d="m 641.33126,161.12237 -28.88946,52.6219 9.0525,5.36988 40.95568,12.19071 3.96604,-2.04636 2.6397,-8.13951 1.64015,-8.2513 0.6438,-8.11375 -0.10306,-7.97942 -0.96339,-6.97073 -3.70543,-16.41248 -23.24543,-12.66874 -0.73398,1.13177 z"
       style="fill:none;stroke:#000000"
       id="path8" />
  </g>
  <ellipse
     style="color:#000000;overflow:visible;opacity:0.99;fill:#ffffff;stroke:#343c48;stroke-width:0.1;stroke-miterlimit:4;stroke-dasharray:none"
     id="path847"
     cx="844.86279"
     cy="343.38397"
     rx="12.36451"
     ry="12.009682" />
  <path
     style="fill:none;fill-rule:evenodd;stroke:#cccccc;stroke-width:6.5;stroke-linecap:butt;stroke-linejoin:miter;stroke-miterlimit:4;stroke-dasharray:none;stroke-opacity:1"
     d="m 606.12993,215.54496 c -9.2118,5.34329 -30.9494,20.92414 -48.88593,31.56721 -24.25511,14.39235 -80.91621,44.7915 -97.65426,50.15667 -9.32706,2.98967 -89.42396,-11.16523 -89.42396,-11.16523"
     id="path2061"
     sodipodi:nodetypes="cssc" />
  <path
     style="fill:none;fill-rule:evenodd;stroke:#cccccc;stroke-width:4.5;stroke-linecap:butt;stroke-linejoin:miter;stroke-miterlimit:4;stroke-dasharray:none;stroke-opacity:1"
     d="m 647.7039,132.40752 c -3.41782,13.30887 -41.60821,83.55989 -45.91325,84.90235"
     id="path2059"
     sodipodi:nodetypes="cc" />
  <path
     style="fill:none;fill-rule:evenodd;stroke:#cccccc;stroke-width:6.5;stroke-linecap:butt;stroke-linejoin:miter;stroke-miterlimit:4;stroke-dasharray:none;stroke-opacity:1"
     d="M 661.1695,17.287736 647.7039,132.40752"
     id="path835"
     sodipodi:nodetypes="cc" />
  <path
     style="font-variation-settings:normal;opacity:1;vector-effect:none;fill:none;fill-opacity:1;fill-rule:evenodd;stroke:#cccccc;stroke-width:6.5;stroke-linecap:butt;stroke-linejoin:miter;stroke-miterlimit:4;stroke-dasharray:none;stroke-dashoffset:0;stroke-opacity:1;stop-color:#000000;stop-opacity:1"
     d="m 601.31894,218.42494 c 0,0 48.90975,15.94081 67.71353,19.75607 18.80375,3.81525 95.38142,19.3488 113.09509,19.89383 17.71369,0.54504 35.15487,2.18015 41.42279,-0.54503 6.26793,-2.72518 34.3373,-14.98851 35.97242,-17.16866 5.86136,-7.81515 0.54503,-16.62361 0.54503,-16.62361 L 809.92445,156.153 c 0,0 -0.27253,-4.08778 -16.89614,-10.08318 -16.62364,-5.9954 -38.15257,-7.90303 -38.15257,-7.90303 L 649.68368,129.4462"
     id="path837"
     sodipodi:nodetypes="cssssccscc" />
  <path
     style="fill:none;fill-rule:evenodd;stroke:#000000;stroke-width:0.265;stroke-linecap:butt;stroke-linejoin:miter;stroke-opacity:1;stroke-miterlimit:4;stroke-dasharray:none;marker-end:url(#Arrow1Lend)"
     d="m 705.66575,245.11383 27.74874,5.39559"
     id="path856" />
  <path
     style="fill:none;fill-rule:evenodd;stroke:#000000;stroke-width:0.265;stroke-linecap:butt;stroke-linejoin:miter;stroke-miterlimit:4;stroke-dasharray:none;stroke-opacity:1;marker-end:url(#Arrow1Lend-0)"
     d="m 745.48321,136.43606 -28.21058,-1.80761"
     id="path856-9" />
  <path
     style="fill:none;fill-rule:evenodd;stroke:#000000;stroke-width:0.265;stroke-linecap:butt;stroke-linejoin:miter;stroke-miterlimit:4;stroke-dasharray:none;stroke-opacity:1;marker-end:url(#Arrow1Lend-5)"
     d="m 643.12988,145.71639 -13.16017,25.01829"
     id="path856-7" />
  <path
     style="fill:#cccccc;fill-rule:evenodd;stroke:none;stroke-width:0.264583px;stroke-linecap:butt;stroke-linejoin:miter;stroke-opacity:1;fill-opacity:1"
     d="m 591.36475,225.71329 c 3.81524,-2.58892 4.53216,-2.40184 7.76675,-2.65705 7.46778,-0.5892 12.94464,1.90762 12.94464,1.90762 0,0 2.38521,-2.57155 4.29216,-5.04158 -3.61805,-1.65398 -4.97348,-1.97576 -5.3141,-4.29217 -0.66022,-4.48988 -0.27253,-7.8349 1.29444,-10.21943 1.567,-2.38454 1.49887,-2.38454 1.49887,-2.38454 z"
     id="path2069"
     sodipodi:nodetypes="csccsscc" />
  <path
     style="font-variation-settings:normal;opacity:1;vector-effect:none;fill:none;fill-opacity:1;fill-rule:evenodd;stroke:#d28484;stroke-width:2.5;stroke-linecap:butt;stroke-linejoin:miter;stroke-miterlimit:4;stroke-dasharray:none;stroke-dashoffset:0;stroke-opacity:1;stop-color:#000000;stop-opacity:1"
     d="m 655.17847,23.123946 c 0,0 -11.01854,95.676774 -13.85351,111.493654 -10.92499,26.48535 -32.60248,69.39286 -38.10568,74.81272 -6.6085,6.50842 -45.03727,31.42922 -68.81088,45.10178 -21.65783,12.45574 -67.03949,33.51974 -67.03949,33.51974"
     id="path2073"
     sodipodi:nodetypes="ccsac" />
  <path
     style="fill:none;fill-rule:evenodd;stroke:#d18484;stroke-width:2.50005;stroke-linecap:butt;stroke-linejoin:miter;stroke-miterlimit:4;stroke-dasharray:none;stroke-opacity:1"
     d="m 584.54419,121.46984 46.10249,0.87479 37.642,3.07271 95.46611,8.77066 c 0,0 34.12171,3.73741 42.3939,10.79117 15.14691,12.9159 78.23602,101.35997 78.23602,101.35997"
     id="path863"
     sodipodi:nodetypes="ccccsc" />
  <g
     id="g2591"
     transform="rotate(-2.9865693,648.28936,120.74294)">
    <path
       style="fill:none;fill-rule:evenodd;stroke:#ffffff;stroke-width:0.2;stroke-linecap:butt;stroke-linejoin:miter;stroke-miterlimit:4;stroke-dasharray:none;stroke-opacity:1"
       d="m 646.55683,118.65995 5.0714,-29.56824"
       id="path874-6" />
    <path
       style="fill:none;fill-rule:evenodd;stroke:#ffffff;stroke-width:0.2;stroke-linecap:butt;stroke-linejoin:miter;stroke-miterlimit:4;stroke-dasharray:none;stroke-opacity:1"
       d="m 649.51366,119.16709 5.07139,-29.56824"
       id="path874-0-1" />
    <path
       style="fill:none;fill-rule:evenodd;stroke:#ffffff;stroke-width:0.5;stroke-linecap:butt;stroke-linejoin:miter;stroke-miterlimit:4;stroke-dasharray:none;stroke-opacity:1"
       d="m 646.62792,118.52847 c 3.06185,0.46779 3.06185,0.46779 3.06185,0.46779"
       id="path905-5" />
  </g>
  <g
     id="g1263"
     transform="rotate(4.8035846,410.48801,6718.2732)">
    <path
       style="fill:none;fill-rule:evenodd;stroke:#ffffff;stroke-width:0.25;stroke-linecap:butt;stroke-linejoin:miter;stroke-miterlimit:4;stroke-dasharray:none;stroke-opacity:1"
       d="m 106.70702,129.6322 30,-0.0141"
       id="path874-00" />
    <path
       style="fill:none;fill-rule:evenodd;stroke:#ffffff;stroke-width:0.25;stroke-linecap:butt;stroke-linejoin:miter;stroke-miterlimit:4;stroke-dasharray:none;stroke-opacity:1"
       d="m 106.70843,132.6322 30,-0.0141"
       id="path874-0-9" />
    <path
       style="fill:none;fill-rule:evenodd;stroke:#ffffff;stroke-width:0.25;stroke-linecap:butt;stroke-linejoin:miter;stroke-miterlimit:4;stroke-dasharray:none;stroke-opacity:1"
       d="m 106.70979,135.5322 30,-0.0141"
       id="path874-1-8" />
    <path
       style="fill:none;fill-rule:evenodd;stroke:#ffffff;stroke-width:0.5;stroke-linecap:butt;stroke-linejoin:miter;stroke-miterlimit:4;stroke-dasharray:none;stroke-opacity:1"
       d="m 106.95702,129.63208 c 0.003,6 0.003,6 0.003,6"
       id="path905-4" />
    <g
       id="g1177"
       transform="translate(0,1.7953869)">
      <path
         d="m 118.88701,131.8948 h 2.76005"
         style="fill:none;fill-rule:evenodd;stroke:#ffffff;stroke-width:0.182038;stroke-linecap:butt;stroke-linejoin:miter;stroke-miterlimit:4;stroke-dasharray:none;stroke-dashoffset:0;stroke-opacity:1"
         id="path2194" />
      <path
         d="m 119.07764,132.21843 -0.006,-0.64489 -1.90294,0.33769 z"
         style="fill:#ffffff;fill-opacity:1;stroke:#ffffff;stroke-width:0.0151859;stroke-linecap:butt;stroke-linejoin:miter;stroke-miterlimit:0;stroke-dasharray:none;stroke-dashoffset:0;stroke-opacity:1"
         id="path4426" />
      <path
         d="m 121.5979,131.89736 c -0.70446,0.0387 -1.35738,-0.12887 -1.5335,0.54123"
         style="fill:none;fill-rule:evenodd;stroke:#ffffff;stroke-width:0.181929;stroke-linecap:butt;stroke-linejoin:miter;stroke-miterlimit:4;stroke-dasharray:none;stroke-opacity:1"
         id="path5415" />
      <path
         d="m 120.64142,132.38936 -1.15318,10e-4 0.60386,0.34224 z"
         style="fill:#ffffff;fill-opacity:1;stroke:#ffffff;stroke-width:0.00861183;stroke-linecap:butt;stroke-linejoin:miter;stroke-miterlimit:0;stroke-dasharray:none;stroke-dashoffset:0;stroke-opacity:1"
         id="path6386" />
    </g>
    <g
       id="g1248">
      <path
         d="m 119.18013,131.53226 h 2.39255"
         style="fill:none;fill-rule:evenodd;stroke:#ffffff;stroke-width:0.182038;stroke-linecap:butt;stroke-linejoin:miter;stroke-miterlimit:4;stroke-dasharray:none;stroke-dashoffset:0;stroke-opacity:1"
         id="path2194-6"
         sodipodi:nodetypes="cc" />
      <path
         d="m 119.24519,131.5297 c -0.70446,-0.0387 -1.35738,0.12887 -1.5335,-0.54123"
         style="fill:none;fill-rule:evenodd;stroke:#ffffff;stroke-width:0.181929;stroke-linecap:butt;stroke-linejoin:miter;stroke-miterlimit:4;stroke-dasharray:none;stroke-opacity:1"
         id="path5415-2" />
      <path
         d="m 118.28871,131.0377 -1.15318,-0.001 0.60386,-0.34224 z"
         style="fill:#ffffff;fill-opacity:1;stroke:#ffffff;stroke-width:0.00861183;stroke-linecap:butt;stroke-linejoin:miter;stroke-miterlimit:0;stroke-dasharray:none;stroke-dashoffset:0;stroke-opacity:1"
         id="path6386-4" />
    </g>
  </g>
</svg>
